<?xml version="1.0" encoding="iso-8859-1"?>
<!-- Uploaded to: SVG Repo, www.svgrepo.com, Generator: SVG Repo Mixer Tools -->
<svg height="800px" width="800px" version="1.1" id="Layer_1" xmlns="http://www.w3.org/2000/svg" xmlns:xlink="http://www.w3.org/1999/xlink" 
	 viewBox="0 0 512 512" xml:space="preserve">
<path style="fill:#FFA81F;" d="M264.681,512c-68.38,0-132.668-26.63-181.02-74.98C35.308,388.668,8.679,324.379,8.679,255.999
	c0-68.38,26.629-132.668,74.981-181.019C132.013,26.628,196.299,0,264.681,0c52.051,0,102.152,15.536,144.887,44.928
	c41.718,28.694,73.742,68.596,92.613,115.396c2.662,6.604,0.55,14.173-5.147,18.444c-10.028,7.522-15.781,19.011-15.781,31.525
	c0,6.362,1.547,12.656,4.476,18.25c1.437,2.371,2.266,5.152,2.266,8.128c0,8.559-6.845,15.52-15.36,15.707
	c-2.125,0.052-4.245-0.323-6.285-1.151c-9.558-3.881-19.65-5.849-29.994-5.849c-44.003,0-79.801,35.8-79.801,79.803
	c0,21.013,8.113,40.856,22.846,55.87c3.449,3.516,5.051,8.445,4.327,13.315s-3.69,9.121-8.013,11.48
	c-16.139,8.81-26.165,25.689-26.165,44.049c0,8.934,2.389,17.712,6.907,25.384c2.393,4.063,2.835,8.987,1.202,13.413
	c-1.633,4.425-5.168,7.882-9.627,9.417C321.247,507.325,293.205,512,264.681,512z"/>
<g>
	<path style="fill:#715539;" d="M256,166.27c-28.392,0-51.491-23.099-51.491-51.491S227.608,63.288,256,63.288
		s51.491,23.099,51.491,51.491C307.491,143.171,284.392,166.27,256,166.27z"/>
	<path style="fill:#715539;" d="M143.374,286.06c-28.391,0-51.49-23.099-51.49-51.491s23.099-51.491,51.49-51.491
		s51.49,23.099,51.49,51.491C194.864,262.962,171.765,286.06,143.374,286.06z"/>
	<path style="fill:#715539;" d="M234.843,431.213c-28.391,0-51.49-23.098-51.49-51.489c0-28.392,23.099-51.491,51.49-51.491
		c28.393,0,51.492,23.099,51.492,51.491C286.336,408.115,263.236,431.213,234.843,431.213z"/>
</g>
<path style="opacity:0.15;enable-background:new    ;" d="M502.18,160.323c-18.871-46.8-50.895-86.702-92.613-115.396
	C366.833,15.536,316.731,0,264.681,0v512c28.524,0,56.566-4.675,83.349-13.893c4.46-1.535,7.995-4.992,9.627-9.417
	c1.633-4.425,1.191-9.349-1.202-13.413c-4.518-7.671-6.907-16.45-6.907-25.384c0-18.36,10.026-35.238,26.165-44.049
	c4.323-2.359,7.289-6.609,8.013-11.48c0.724-4.871-0.878-9.799-4.327-13.315c-14.731-15.014-22.846-34.856-22.846-55.87
	c0-44.003,35.797-79.803,79.801-79.803c10.344,0,20.436,1.968,29.994,5.849c2.039,0.829,4.159,1.202,6.285,1.151
	c8.515-0.188,15.36-7.149,15.36-15.707c0-2.976-0.829-5.757-2.266-8.128c-2.929-5.593-4.476-11.887-4.476-18.25
	c0-12.513,5.753-24.003,15.781-31.525C502.731,174.497,504.842,166.927,502.18,160.323z"/>
</svg>